<?xml version="1.0" encoding="UTF-8"?>
<svg id="Layer_2" data-name="Layer 2" xmlns="http://www.w3.org/2000/svg" viewBox="0 0 480 486.12">
  <defs>
    <style>
      .cls-1 {
        fill: #a0bf66;
      }

      .cls-2 {
        fill: #fff;
      }

      .cls-3 {
        fill: #6b8044;
      }

      .cls-4 {
        fill: #788f4d;
      }

      .cls-5 {
        fill: none;
        stroke: #fff;
        stroke-linecap: round;
        stroke-linejoin: round;
        stroke-width: 10px;
      }

      .cls-6 {
        fill: #2b331b;
      }
    </style>
  </defs>
  <g id="Layer_2-2" data-name="Layer 2">
    <g>
      <g>
        <path class="cls-6" d="m391.8,190.5l2.83,23.85-24.28,3.65,2.65-4,9.42-11.86-11.43-1.01v-.13s.01,0,20.7-11.54l.31.54.6.4-.8.1Z"/>
        <path class="cls-6" d="m436.35,304.42l.11-3.81s8.54,13.39,9.95,11.39c.89-1.26-5.02-28.16-9.54-48-2.68-11.74-4.87-21-4.87-21l-31,53.3,28-25.3-1.73,41-31.31,34.92c-.85.66-1.33,1.04-1.33,1.07h.37s.96-1.07.96-1.07c7.08-5.45,40.04-29.92,40.04-29.92l.35-12.58Zm-36.35-185.42l75,125-22-11,16,107-22-8-80,65-6,35-92,49.12v-15.12l-72,8.99,1-30.99-122-89-35,14,5.39-86-41.39,14,24-112-17-6,43-55L69,5l80,29,6-24,100.5,39.12-4.5-26.12,64,29,125,6-40,61Zm13.24,87l-4.59-26-24.13-20.69-11.43,33.69-2.74,8.07-20.35-18.42,5.8,31.7,14.55,15.51,4.88,2.83,25.77-10.59v-26.1l12.24,10Zm-34.91-92.29l22.67-35.57-54.78,8.93,32.11,26.64Zm-32.11,25l31-9.71-24.51-15.29-6.49,25Zm14.36,162.62l16.64-9.33-12.22-11.86-23.46-41.14-14.54,37.5h-35l19,19.5h16l14.54,16,19.04-10.67Zm-4.78,71.67l21.42-17.73-50.41-14.56-56.81,14.56,16,21.73,11.82-16,57.98-5.73v17.73Zm-14.26,39.18l-6.93-35.23-7.61,15.02h-53l-11-24.21-14,18.83-8-13.59h-12l-2.99-12-15.01,5.99,38,36.01,30.49,3.02,39.51,3.92,22.54,2.24Zm-25.54-291.72l22.41-24.53h-46.41l-51-10.32,75,34.85Zm-41,121.54l31-57-14,10.93-37.58-25.02h0s-.01,0-.01,0l-43.41-28.9-39.56,31.97-.44.03-.23.51-60.01,48.49,50.24,27,16,50.61,23-69.61-45-21.29,54-38.81,40.44,24.47-12.44,8.3,16,12.33-16-1-20-25,12,46.78,17.04-4.08,27.96-6.7,1,16Zm-46-121.54l74,18.54-79.99-43.07-68.01,49.07,74-24.54Zm-49,252.54l-28-90-60-19,22-84-58,100.18,73,31.82,51,61ZM75.82,115.03l59.24-60.25-54.3-15.13-4.94,75.38Z"/>
        <path class="cls-3" d="m436.87,264c4.52,19.84,10.43,46.74,9.54,48-1.41,2-9.95-11.39-9.95-11.39l-7.46-29.61,7.86-7h.01Z"/>
        <path class="cls-1" d="m436.87,264h-.01l-7.86,7-28,25.3,31-53.3s2.19,9.26,4.87,21Z"/>
        <polygon class="cls-1" points="429 271 436.46 300.61 436.35 304.42 427.27 312 429 271"/>
        <path class="cls-3" d="m427.27,312l9.08-7.58-.35,12.58s-32.96,24.47-40.04,29.92l31.31-34.92Z"/>
        <path class="cls-3" d="m408.65,180l4.59,26-12.24-10c-5.34-3.56-7.51-5.01-8.4-5.6l-.6-.4-.31-.54c4.57-2.55,10.15-5.66,16.96-9.46Z"/>
        <path class="cls-1" d="m384.52,159.31l24.13,20.69c-6.81,3.8-12.39,6.91-16.96,9.46l-20.69,11.54v.13s-.65-.06-.65-.06l2.74-8.07,11.43-33.69Z"/>
        <path class="cls-3" d="m401,222v.1l-25.77,10.59,19.4-18.34,6.37,7.65Z"/>
        <path class="cls-1" d="m401,196v26l-6.37-7.65-2.83-23.85.8-.1c.89.59,3.06,2.04,8.4,5.6Z"/>
        <polygon class="cls-4" points="401 78.14 378.33 113.71 346.22 87.07 401 78.14"/>
        <polygon class="cls-1" points="394.63 214.35 375.23 232.69 370.35 229.86 370.35 218 394.63 214.35"/>
        <polygon class="cls-2" points="382.42 202.14 373 214 361.72 209.2 370.35 201.07 370.99 201.13 382.42 202.14"/>
        <polygon class="cls-1" points="377.22 129 346.22 138.71 352.71 113.71 377.22 129"/>
        <polygon class="cls-1" points="377.22 292 360.58 301.33 360.18 300.61 346 292 377.22 292"/>
        <polygon class="cls-3" points="377.22 292 346 292 365 280.14 377.22 292"/>
        <polygon class="cls-4" points="377.22 355.27 355.8 373 355.8 355.27 377.22 355.27"/>
        <polygon class="cls-1" points="377.22 355.27 355.8 355.27 297.82 361 270 355.27 326.81 340.71 377.22 355.27"/>
        <polygon class="cls-1" points="373 214 370.35 218 355.8 214.35 361.72 209.2 373 214"/>
        <polygon class="cls-3" points="370.35 218 370.35 229.86 355.8 214.35 370.35 218"/>
        <polygon class="cls-3" points="370.35 201.07 355.8 214.35 350 182.65 370.35 201.07"/>
        <polygon class="cls-1" points="341.54 239 365 280.14 346 292 327 276.5 341.54 239"/>
        <polygon class="cls-3" points="360.18 300.61 360.58 301.33 341.54 312 327 296 346 292 360.18 300.61"/>
        <polygon class="cls-3" points="346 292 327 296 327 276.5 346 292"/>
        <polygon class="cls-1" points="334.61 376.95 341.54 412.18 319 409.94 327 391.97 334.61 376.95"/>
        <polygon class="cls-3" points="338.41 95.93 316 120.46 292 95.93 338.41 95.93"/>
        <polygon class="cls-3" points="327 276.5 327 296 311 296 327 276.5"/>
        <polygon class="cls-1" points="327 276.5 311 296 292 276.5 327 276.5"/>
        <polygon class="cls-4" points="327 391.97 319 409.94 279.49 406.02 274 391.97 327 391.97"/>
        <polygon class="cls-1" points="292 95.93 316 120.46 241 85.61 292 95.93"/>
        <polygon class="cls-1" points="306 185 275 242 274 226 267 206 292 195.93 306 185"/>
        <polygon class="cls-1" points="303 139 229 120.46 223.01 95.93 303 139"/>
        <polygon class="cls-4" points="297.82 361 286 377 270 355.27 297.82 361"/>
        <path class="cls-3" d="m292,195.93l-25,10.07h-.01s-12.57-35.09-12.57-35.09l37.58,25.02Z"/>
        <polygon class="cls-1" points="274 391.97 279.49 406.02 249 403 249 386.59 263 367.76 274 391.97"/>
        <polygon class="cls-3" points="267 206 274 226 253 216 267 206"/>
        <polygon class="cls-1" points="274 226 246.04 232.7 246.04 232.69 253 216 274 226"/>
        <path class="cls-2" d="m266.88,205.93c.06.04.09.05.11.06h.01s-14,10.01-14,10.01l-16-12.33,12.44-8.3,17.44,10.56Z"/>
        <path class="cls-1" d="m254.42,170.91l12.57,35.08s-.05-.02-.11-.06l-16.88-10.93-.56.37-40.44-24.47h45.42Z"/>
        <polygon class="cls-1" points="250 195 266.88 205.93 249.44 195.37 250 195"/>
        <polygon class="cls-3" points="254.41 170.9 209 170.9 211 142 254.41 170.9"/>
        <polygon class="cls-3" points="253 216 246.04 232.69 237 215 253 216"/>
        <polygon class="cls-4" points="249 386.59 249 403 211 366.99 226.01 361 229 373 241 373 249 386.59"/>
        <polygon class="cls-1" points="246.04 232.69 246.04 232.7 229 236.78 217 190 237 215 246.04 232.69"/>
        <polygon class="cls-3" points="223.01 95.93 229 120.46 155 145 223.01 95.93"/>
        <path class="cls-1" d="m211,142l-2,28.9c-29.42,2.4-36.06,2.94-37.56,3.07l39.56-31.97Z"/>
        <path class="cls-3" d="m209,170.9l-54,38.81,15.77-35.2.67-.54c1.5-.13,8.14-.67,37.56-3.07Z"/>
        <polygon class="cls-3" points="200 231 177 300.61 161 250 200 231"/>
        <polygon class="cls-1" points="200 231 161 250 155 209.71 200 231"/>
        <polygon class="cls-3" points="152 283 180 373 129 312 152 283"/>
        <polygon class="cls-1" points="170.77 174.51 155 209.71 110.76 223 170.77 174.51"/>
        <polygon class="cls-3" points="155 209.71 161 250 110.76 223 155 209.71"/>
        <polygon class="cls-1" points="152 283 129 312 92 264 152 283"/>
        <polygon class="cls-1" points="135.06 54.78 75.82 115.03 80.76 39.65 135.06 54.78"/>
        <polygon class="cls-3" points="92 264 129 312 56 280.18 92 264"/>
        <polygon class="cls-1" points="114 180 92 264 56 280.18 114 180"/>
      </g>
      <polygon class="cls-5" points="46.39 283 41 369 76 355 198 444 197 474.99 269 466 269 481.12 361 432 367 397 447 332 469 340 453 233 475 244 400 119 440 58 315 52 251 23 255.5 49.12 155 10 149 34 69 5 55 124 12 179 29 185 5 297 46.39 283"/>
    </g>
  </g>
</svg>